<svg width="28" height="31" viewBox="0 0 28 31" fill="none" xmlns="http://www.w3.org/2000/svg">
<path d="M15.3068 5.95079L19.7217 2.60448L21.6805 3.58698L21.4195 9.2142L15.3068 5.95079H15.3068ZM11.5467 19.2447L20.2544 10.3209L14.1195 7.03645L11.5467 19.2447V19.2447ZM26.2102 5.85894L23.0518 4.27479L22.7888 9.94525L28 12.7274L26.2102 5.85894ZM22.1903 11.1895L13.5488 19.3357L21.3614 15.6554C22.7874 19.3169 21.98 23.7523 18.5063 26.6143C12.6696 31.4233 3.65098 28.213 2.31176 20.8495C1.36333 15.6344 4.76653 11.0828 9.38218 9.77753L10.7079 17.6767L12.5501 6.15453L8.02417 3.62664L8.92611 7.71167C3.24479 9.24878 -0.968815 14.8223 0.193829 21.215C1.82268 30.1709 12.7916 34.0755 19.8905 28.2265C24.1142 24.7464 25.0992 19.3527 23.3665 14.8999L26.7516 13.6247L22.1903 11.1895ZM18.3432 1.9131L14.5289 0L8.81758 2.48636L13.9627 5.23325L18.3432 1.9131H18.3432Z" fill="#6F9FFF"/>
</svg>
