<svg width="53" height="53" viewBox="0 0 53 53" fill="none" xmlns="http://www.w3.org/2000/svg">
<path d="M47.8522 24.0687C45.9204 21.683 43.3364 19.9106 40.415 18.9677L41.4984 17.8842C41.8297 17.5551 42.0622 17.1398 42.1695 16.6854C42.2768 16.2309 42.2546 15.7555 42.1054 15.313C41.9427 14.8252 41.6581 14.387 41.2785 14.0402C40.8989 13.6933 40.437 13.4492 39.9366 13.3311C39.4361 13.2129 38.9138 13.2247 38.4192 13.3651C37.9245 13.5056 37.474 13.7702 37.1104 14.1337L36.6808 14.5633L36.2512 14.1337C35.8875 13.7701 35.437 13.5054 34.9423 13.3648C34.4476 13.2243 33.9252 13.2125 33.4246 13.3307C32.9241 13.4488 32.4621 13.693 32.0825 14.0399C31.7029 14.3869 31.4182 14.8251 31.2556 15.313C31.1064 15.7554 31.0842 16.2309 31.1915 16.6853C31.2988 17.1398 31.5312 17.5551 31.8625 17.8842L32.5043 18.526C32.0779 18.6114 31.6555 18.714 31.2398 18.8339C31.2092 18.8429 31.1792 18.8535 31.1499 18.8659C30.1099 16.9921 28.6983 15.3502 27.0015 14.041C25.3047 12.7318 23.3585 11.7828 21.2821 11.2521L23.8412 7.9618C23.9528 7.81838 24.0141 7.64223 24.0157 7.46051C24.0173 7.2788 23.9591 7.1016 23.85 6.95625L21.3656 3.64375C21.2885 3.5409 21.1885 3.45742 21.0735 3.39993C20.9585 3.34243 20.8317 3.3125 20.7031 3.3125H14.0781C13.9496 3.3125 13.8228 3.34243 13.7078 3.39993C13.5928 3.45742 13.4928 3.5409 13.4156 3.64375L10.9312 6.95625C10.8222 7.10159 10.764 7.27874 10.7656 7.46041C10.7672 7.64208 10.8285 7.81819 10.94 7.96159L13.4993 11.2521C10.1122 12.1175 7.10958 14.0859 4.96516 16.8469C2.82074 19.6078 1.65655 23.0041 1.65625 26.5C1.65625 35.176 8.71467 42.2344 17.3906 42.2344C18.9005 42.2352 20.4026 42.018 21.8504 41.5896C23.2088 44.0475 25.2022 46.0956 27.6225 47.5201C30.0428 48.9445 32.8011 49.693 35.6094 49.6875C44.2853 49.6875 51.3438 42.6291 51.3438 33.9531C51.3409 30.3566 50.109 26.869 47.8522 24.0687ZM32.8264 15.8368C32.8997 15.6167 33.0281 15.419 33.1993 15.2625C33.3705 15.106 33.5789 14.9959 33.8046 14.9426C34.0304 14.8893 34.266 14.8946 34.4891 14.958C34.7122 15.0214 34.9155 15.1408 35.0795 15.3048L36.0947 16.32C36.25 16.4752 36.4606 16.5625 36.6802 16.5625C36.8998 16.5625 37.1104 16.4752 37.2657 16.32L38.2809 15.3049C38.4449 15.1408 38.6481 15.0214 38.8713 14.958C39.0944 14.8946 39.33 14.8893 39.5558 14.9426C39.7816 14.9959 39.99 15.106 40.1612 15.2625C40.3324 15.419 40.4608 15.6167 40.5341 15.8368C40.5849 15.9876 40.5925 16.1496 40.5559 16.3045C40.5193 16.4594 40.44 16.601 40.3271 16.7131L36.68 20.3602L33.033 16.7131C32.9201 16.6009 32.8409 16.4594 32.8044 16.3045C32.7679 16.1496 32.7755 15.9875 32.8264 15.8368ZM33.125 26.5C33.1247 25.509 33.0307 24.5202 32.8443 23.5468C34.7809 23.0322 36.8227 23.0682 38.7399 23.6508C40.6572 24.2335 42.3738 25.3396 43.6966 26.8448C45.0194 28.3499 45.8959 30.1944 46.2275 32.1706C46.5591 34.1468 46.3326 36.1763 45.5736 38.0308C44.8145 39.8852 43.5529 41.4911 41.9309 42.6676C40.3088 43.8441 38.3906 44.5446 36.392 44.6903C34.3935 44.8359 32.394 44.421 30.6185 43.4921C28.8429 42.5632 27.3619 41.1572 26.3419 39.4324C28.434 37.9859 30.144 36.0536 31.3254 33.8012C32.5068 31.5488 33.1243 29.0434 33.125 26.5ZM33.9502 19.9724L35.5108 21.533C34.4771 21.5403 33.4482 21.6764 32.4481 21.9381C32.2874 21.4071 32.0987 20.8851 31.8828 20.374C32.5609 20.1887 33.252 20.0544 33.9502 19.9724ZM28.1562 26.5C28.1553 27.9497 27.8619 29.3843 27.2937 30.7179C26.7255 32.0516 25.8941 33.257 24.8492 34.2619C24.8463 34.1584 24.8438 34.056 24.8438 33.9531C24.84 32.5024 25.1313 31.0661 25.6999 29.7314C26.2686 28.3968 27.1027 27.1917 28.1515 26.1895C28.1544 26.293 28.1562 26.3965 28.1562 26.5ZM21.7356 36.3532C21.5997 35.5604 21.5313 34.7575 21.5312 33.9531C21.5295 31.7188 22.0604 29.5162 23.0799 27.528C24.0995 25.5398 25.5782 23.8232 27.3937 22.5207C27.6116 23.0671 27.7841 23.6306 27.9093 24.2055C26.4338 25.3651 25.2418 26.8456 24.4237 28.5345C23.6056 30.2234 23.1828 32.0765 23.1875 33.9531C23.1882 34.4729 23.2211 34.9921 23.2859 35.5078C22.7933 35.8317 22.2747 36.1145 21.7356 36.3532ZM19.875 33.9531C19.8752 34.9444 19.9684 35.9335 20.1534 36.9074C18.2168 37.4224 16.1749 37.3868 14.2574 36.8045C12.34 36.2223 10.623 35.1165 9.29983 33.6116C7.97661 32.1067 7.0996 30.2624 6.76748 28.2862C6.43537 26.31 6.66132 24.2804 7.41991 22.4256C8.1785 20.5708 9.43964 18.9646 11.0614 17.7875C12.6832 16.6105 14.6013 15.9093 16.5998 15.763C18.5984 15.6167 20.5981 16.031 22.374 16.9594C24.1499 17.8877 25.6316 19.2932 26.6522 21.0177C24.5597 22.4641 22.8498 24.397 21.6693 26.6501C20.4888 28.9033 19.8731 31.4094 19.875 33.9531ZM14.3094 8.28125L15.0762 10.5817L13.287 8.28125H14.3094ZM21.4943 8.28125L19.705 10.5817L20.4719 8.28125H21.4943ZM18.726 8.28125L17.3906 12.2873L16.0553 8.28125H18.726ZM16.5625 6.625L17.3906 5.5208L18.2188 6.625H16.5625ZM21.5312 6.625H20.2891L19.0469 4.96875H20.2891L21.5312 6.625ZM14.4922 4.96875H15.7344L14.4922 6.625H13.25L14.4922 4.96875ZM3.3125 26.5C3.31271 23.2467 4.43934 20.0939 6.50094 17.5773C8.56253 15.0606 11.4319 13.3354 14.6215 12.6948L15.7787 14.1826C12.6507 14.5919 9.79562 16.1761 7.79292 18.6135C5.79021 21.051 4.78992 24.1591 4.99504 27.3071C5.20016 30.4551 6.59532 33.4071 8.89739 35.5641C11.1995 37.721 14.236 38.9213 17.3906 38.9213C20.5453 38.9213 23.5818 37.721 25.8839 35.5641C28.1859 33.4071 29.5811 30.4551 29.7862 27.3071C29.9913 24.1591 28.991 21.051 26.9883 18.6135C24.9856 16.1761 22.1306 14.5919 19.0026 14.1826L20.1598 12.6948C23.3493 13.3354 26.2187 15.0606 28.2803 17.5773C30.3419 20.0939 31.4685 23.2467 31.4688 26.5C31.4688 34.2627 25.1534 40.5781 17.3906 40.5781C9.62788 40.5781 3.3125 34.2627 3.3125 26.5ZM35.6094 48.0312C33.1437 48.036 30.7203 47.391 28.5832 46.1612C26.4461 44.9314 24.6707 43.1602 23.4359 41.0259C23.9477 40.8122 24.4477 40.5714 24.9339 40.3047C26.0003 42.097 27.5009 43.5918 29.2971 44.6515C31.0933 45.7112 33.1274 46.3016 35.2118 46.3683C37.2963 46.4349 39.364 45.9757 41.2242 45.0329C43.0845 44.0902 44.6774 42.6942 45.8562 40.9738C47.035 39.2534 47.7616 37.2639 47.9691 35.1887C48.1766 33.1136 47.8583 31.0196 47.0436 29.0998C46.2288 27.18 44.9438 25.4963 43.3071 24.2038C41.6703 22.9114 39.7345 22.0518 37.6781 21.7044L39.0771 20.3056C42.111 21.0777 44.8011 22.8385 46.7225 25.31C48.644 27.7814 49.6873 30.8226 49.6875 33.9531C49.6875 41.7159 43.3721 48.0312 35.6094 48.0312Z" fill="#507AB9"/>
<path d="M38.9219 42.3736C39.0359 42.3736 39.1487 42.3499 39.2531 42.3041C39.5651 42.1677 39.8693 42.0139 40.1641 41.8434C40.261 41.7905 40.3464 41.7187 40.4152 41.6323C40.484 41.5459 40.5348 41.4466 40.5646 41.3403C40.5945 41.234 40.6028 41.1228 40.589 41.0132C40.5752 40.9036 40.5397 40.7979 40.4844 40.7023C40.4292 40.6066 40.3554 40.523 40.2674 40.4563C40.1793 40.3897 40.0789 40.3413 39.9718 40.314C39.8648 40.2867 39.7534 40.2811 39.6442 40.2975C39.535 40.3139 39.4302 40.352 39.3359 40.4096C39.0947 40.549 38.8459 40.6748 38.5906 40.7864C38.4162 40.8624 38.2733 40.9963 38.1859 41.1653C38.0986 41.3344 38.0721 41.5284 38.111 41.7146C38.1499 41.9009 38.2517 42.0681 38.3994 42.1881C38.5471 42.3081 38.7316 42.3736 38.9219 42.3736Z" fill="#507AB9"/>
<path d="M41.7375 39.5844C41.9131 39.7162 42.1339 39.773 42.3513 39.7421C42.5687 39.7112 42.765 39.5952 42.8969 39.4197C44.0847 37.8453 44.7246 35.9253 44.7187 33.9531C44.7187 33.7335 44.6315 33.5229 44.4762 33.3676C44.3209 33.2122 44.1103 33.125 43.8906 33.125C43.671 33.125 43.4604 33.2122 43.3051 33.3676C43.1497 33.5229 43.0625 33.7335 43.0625 33.9531C43.0675 35.5664 42.5443 37.137 41.5728 38.425C41.4409 38.6006 41.3842 38.8214 41.4151 39.0388C41.446 39.2562 41.5619 39.4525 41.7375 39.5844Z" fill="#507AB9"/>
</svg>
